<svg width="1871" height="247" viewBox="0 0 1871 247" fill="none" xmlns="http://www.w3.org/2000/svg">
<path d="M199.744 109.308C199.741 122.762 199.744 136.208 199.733 149.656C199.734 151.545 199.734 153.433 199.728 155.329C199.725 155.871 200.268 156.915 200.919 156.763C202.309 156.425 203.708 156.094 205.098 155.757C206.918 155.323 209.152 155.122 210.867 154.367C211.658 154.019 211.622 153.788 211.946 152.9C212.669 150.928 213.392 148.957 214.129 146.984C214.602 145.692 214.985 143.278 215.886 142.218C216.166 141.891 215.56 142.458 215.991 142.262C216.247 142.144 216.6 142.115 216.877 142.052C217.825 141.826 218.854 141.677 219.776 141.355C221.624 140.69 221.769 138.712 220.586 137.285C219.311 135.748 217.751 136.434 216.104 136.825C216.492 137.368 216.895 137.909 217.283 138.452C217.911 136.749 218.54 135.046 219.162 133.351C219.477 132.506 219.678 131.434 220.146 130.67C220.424 130.215 220.166 130.546 220.287 130.488C220.689 130.281 221.352 130.227 221.788 130.123C223.628 129.68 225.87 129.257 225.11 126.765C224.371 124.328 222.433 124.556 220.44 125.032C220.828 125.575 221.231 126.116 221.619 126.659C224.849 117.883 228.082 109.121 231.312 100.345C232.157 98.038 233.01 95.7368 233.855 93.4295C234.128 92.7042 234.432 90.7993 235.021 90.2697C235.188 90.1206 237.047 89.7676 237.348 89.6729C238.676 89.2364 240.003 88.7859 241.329 88.3354C244.157 87.3554 246.973 86.3413 249.765 85.2447C254.073 83.567 258.336 81.7524 262.437 79.6089C265.133 78.1965 267.884 76.6631 270.143 74.6069C271.288 73.5591 272.574 72.2157 272.566 70.5493C272.55 66.2544 266.547 65.4856 263.437 65.1824C254.404 64.2858 245.066 65.4581 236.122 66.7095C234.602 66.9205 233.084 67.1456 231.567 67.3847C231.008 67.4688 230.427 67.6125 229.862 67.6545C226.29 67.9791 229.913 68.1755 229.461 68.0394C229.195 67.9587 228.792 67.4175 228.599 67.242C227.23 65.9735 225.86 64.705 224.484 63.4443C216.647 56.206 208.811 48.9677 200.974 41.7294C201.098 42.2697 201.223 42.81 201.355 43.3564C202.394 43.1128 203.708 43.0201 204.211 41.9169C204.7 40.8654 204.206 39.5304 203.452 38.7409C201.926 37.1356 199.322 38.4295 197.51 38.8694C197.727 38.9493 197.937 39.037 198.154 39.1169C196.019 37.1387 193.885 35.1745 191.75 33.1962C191.875 33.7365 191.999 34.2768 192.131 34.8233C193.079 34.5981 194.515 34.5115 195.184 33.7013C196.049 32.6385 195.532 31.0071 194.678 30.1017C193.095 28.4394 190.161 29.8815 188.279 30.3301C188.495 30.41 188.706 30.4977 188.922 30.5776C187.417 29.1907 185.917 27.7958 184.419 26.415C183.357 25.436 182.294 24.4569 181.237 23.47C180.753 23.0173 180.19 22.2752 179.602 21.9567C178.387 21.303 176.257 22.3314 174.971 22.6486C172.805 23.1682 170.64 23.6878 168.474 24.2075C168.052 24.31 168.454 25.2433 168.529 25.3906C171.848 31.8886 175.167 38.3866 178.494 44.8907C182.117 51.9921 186.063 59.0033 189.411 66.2459C189.538 66.5222 189.4 66.3897 189.287 65.8837C189.337 66.1126 189.389 66.3555 189.425 66.5862C189.585 67.8132 189.901 69.0351 190.138 70.2454C190.559 72.4233 190.981 74.6011 191.402 76.7789C191.452 76.5518 191.496 76.3325 191.538 76.0992C180.202 79.2524 168.921 82.8406 158.131 87.5718C158.348 87.6516 158.558 87.7394 158.775 87.8192C152.439 80.8996 146.095 73.9739 139.759 67.0543C139.578 66.863 139.37 66.7393 139.115 66.8068C136.853 67.3527 134.597 67.8907 132.335 68.4367C132.024 68.5111 132.203 69.2084 132.272 69.3637C135.988 78.6411 139.704 87.9186 143.426 97.1882C143.413 96.9119 143.4 96.6356 143.387 96.3593C140.689 99.4679 142.002 102.454 145.605 103.914C145.303 103.438 145.01 102.969 144.714 102.486C145.628 112.434 146.535 122.389 147.449 132.337C147.501 132.872 147.96 133.926 148.639 133.77C150.901 133.225 153.157 132.687 155.419 132.141C155.512 132.086 155.566 132.001 155.58 131.885C157.127 126.298 158.661 120.712 160.208 115.125C161.048 112.091 161.882 109.066 162.722 106.032C163.06 104.8 162.793 104.883 163.991 104.955C166.993 105.136 170.304 104.431 173.282 104.087C181.499 103.119 189.645 101.704 197.742 100.059C197.399 99.653 197.062 99.239 196.725 98.8249C197.754 102.388 198.783 105.951 199.812 109.513C200.015 110.229 201.497 111.37 201.117 110.035C200.088 106.472 199.059 102.909 198.03 99.3462C197.934 99.0304 197.514 98.0068 197.014 98.1119C185.479 100.463 173.805 102.39 162.048 103.088C161.872 103.103 161.794 103.219 161.749 103.375C160.056 109.507 158.363 115.64 156.663 121.781C155.928 124.452 155.489 127.557 154.367 130.106C154.105 130.687 154.385 130.246 154.278 130.302C153.73 130.598 152.859 130.643 152.265 130.788C150.722 131.159 149.179 131.53 147.636 131.9C148.038 132.378 148.432 132.849 148.827 133.334C147.914 123.386 147.006 113.43 146.093 103.482C146.042 102.962 145.72 102.268 145.202 102.054C144.189 101.646 143.046 100.998 143.456 99.7711C143.68 99.109 144.198 98.5741 144.639 98.0558C144.806 97.8568 144.674 97.4244 144.6 97.227C140.884 87.9495 137.168 78.6721 133.454 69.4087C133.428 69.7183 133.417 70.0261 133.391 70.3357C135.653 69.7898 137.909 69.2518 140.171 68.7059C139.955 68.626 139.744 68.5382 139.528 68.4584C145.864 75.378 152.208 82.3038 158.544 89.2234C158.693 89.39 158.952 89.5787 159.188 89.4708C169.977 84.7397 181.251 81.1453 192.595 77.9983C192.836 77.9326 192.764 77.4712 192.731 77.3186C192.036 73.7497 191.701 69.8651 190.612 66.3953C189.95 64.2832 188.548 62.2419 187.555 60.278C182.841 51.0608 178.135 41.8358 173.422 32.6186C172.103 30.0468 170.792 27.4811 169.48 24.9014C169.501 25.2979 169.522 25.6943 169.535 26.0846C173.028 25.2425 176.516 24.4083 180.009 23.5662C179.793 23.4864 179.582 23.3986 179.366 23.3187C182.225 25.9619 185.085 28.6051 187.944 31.2483C189.04 32.266 189.303 32.2046 190.812 31.8454C191.65 31.6482 193.347 30.8022 193.589 31.7127C193.831 32.6231 191.906 32.7349 191.139 32.9233C190.558 33.067 191.327 34.3749 191.52 34.5504C193.557 36.4268 195.512 38.6699 197.747 40.3078C198.61 40.9413 199.17 40.5792 200.223 40.3338C200.506 40.2628 203.443 39.2408 202.498 40.8623C202.275 41.2464 200.716 41.3767 200.371 41.4626C199.79 41.6063 200.559 42.9142 200.752 43.0897C207.323 49.1533 213.881 55.2187 220.452 61.2824C223.288 63.9071 226.024 66.8222 229.054 69.2304C229.275 69.4023 229.433 69.6392 229.714 69.7182C230.701 69.9798 232.588 69.2812 233.617 69.1314C235.113 68.9019 236.619 68.6926 238.125 68.4834C243.178 67.803 248.248 67.2629 253.333 67.0132C256.953 66.8395 260.607 66.7683 264.221 67.1226C265.952 67.2914 269.762 67.443 270.977 69.0088C273.043 71.694 263.472 76.6508 261.935 77.4696C253.255 82.0942 243.939 84.9812 234.736 88.3243C233.488 88.7722 233.507 89.4967 233.053 90.7148C232.372 92.567 231.697 94.4113 231.008 96.2574C227.442 105.938 223.882 115.61 220.321 125.282C220.113 125.843 220.864 127.06 221.501 126.909C221.812 126.835 222.209 126.65 222.525 126.668C222.698 126.625 222.864 126.59 223.029 126.54C223.615 127.237 223.572 127.634 222.872 127.736C222.52 127.994 221.655 128.03 221.219 128.135C220.084 128.404 219.369 128.33 218.832 129.28C217.525 131.595 216.884 134.569 215.963 137.071C215.755 137.631 216.506 138.849 217.143 138.698C217.488 138.612 218.902 138.065 219.156 138.211C220.71 139.079 218.603 139.492 218.237 139.587C217.264 139.844 215.269 139.901 214.631 140.672C214.142 141.267 213.935 142.575 213.675 143.285C213.008 145.085 212.349 146.878 211.69 148.685C211.297 149.76 211.009 151.449 210.327 152.375C210.066 152.742 210.656 152.213 210.063 152.436C209.518 152.633 208.908 152.716 208.348 152.85C205.539 153.528 202.737 154.198 199.929 154.877C200.33 155.354 200.724 155.825 201.119 156.31C201.122 142.856 201.119 129.41 201.122 115.956C201.121 114.067 201.121 112.179 201.127 110.283C201.11 109.637 199.739 108.126 199.744 109.308Z" fill="#FA9556"/>
<path d="M260.473 76.0915C260.237 75.1091 259.998 74.1127 259.762 73.1304C259.586 72.4111 259.419 71.6981 259.244 70.9788C259.141 70.5569 258.987 70.1201 258.934 69.6991C258.906 69.4746 258.982 69.2799 259.131 69.1045C259.274 68.937 259.507 68.8011 259.723 68.767C259.709 68.7687 259.901 68.7662 259.951 68.767C260.037 68.7706 260.198 68.8574 260.268 68.8487C260.226 68.8539 260.087 68.3154 260.159 68.6627C260.198 68.8574 260.25 69.0504 260.295 69.2372C260.632 70.6274 260.97 72.0176 261.301 73.4157C261.42 73.9139 261.597 74.4192 261.666 74.9165C261.698 75.1691 261.599 75.4094 261.408 75.59C261.211 75.7785 260.937 75.8697 260.715 75.8617C260.601 75.8617 260.464 75.7933 260.357 75.7854C260.235 75.7792 260.362 75.7134 260.473 76.0915C260.347 75.6512 260.08 75.0503 259.604 74.8959C259.165 74.744 259.07 75.2404 259.162 75.5781C259.409 76.4166 259.884 77.2552 260.708 77.6299C261.238 77.8773 261.898 77.8591 262.373 77.4934C263.121 76.9226 263.109 76.0263 262.913 75.2027C262.541 73.6458 262.169 72.0889 261.796 70.5321C261.679 70.0479 261.574 69.548 261.442 69.0656C261.121 67.8657 260.05 66.4744 258.65 66.9056C256.838 67.4595 257.795 69.8769 258.095 71.1365C258.451 72.617 258.806 74.0976 259.162 75.5781C259.266 76.014 259.564 76.6254 260.031 76.7737C260.484 76.9238 260.557 76.423 260.473 76.0915Z" fill="#FA9556"/>
<path d="M197.856 100.059C208.645 97.2664 219.434 94.4735 230.23 91.6728C231.783 91.2723 233.336 90.8718 234.89 90.4714C235.525 90.3066 234.651 88.3848 233.871 88.589C223.082 91.3818 212.292 94.1747 201.497 96.9754C199.944 97.3759 198.39 97.7763 196.837 98.1768C196.194 98.3354 197.068 100.257 197.856 100.059Z" fill="#FA9556"/>
<path d="M229.01 67.7894C218.131 70.2086 207.246 72.6357 196.368 75.0549C194.801 75.4071 193.241 75.7515 191.666 76.0975C190.849 76.2851 191.749 78.1893 192.408 78.043C203.287 75.6238 214.171 73.1968 225.05 70.7776C226.617 70.4253 228.177 70.081 229.751 69.7349C230.577 69.5535 229.668 67.6431 229.01 67.7894Z" fill="#FA9556"/>
<path d="M1838.85 83.3495C1846.03 92.5814 1853.21 101.805 1860.38 111.037C1861.39 112.332 1862.4 113.627 1863.41 114.931C1863.69 115.305 1864.62 115.731 1864.99 115.279C1865.76 114.305 1866.55 113.331 1867.32 112.358C1868.34 111.089 1869.76 109.759 1870.54 108.324C1870.89 107.664 1870.74 107.525 1870.49 106.742C1869.94 105.004 1869.38 103.265 1868.83 101.518C1868.47 100.379 1867.44 98.5187 1867.49 97.3103C1867.51 96.9366 1867.4 97.6494 1867.59 97.2843C1867.7 97.0669 1867.93 96.8583 1868.08 96.6671C1868.61 96.0064 1869.24 95.3544 1869.7 94.6416C1870.61 93.1986 1869.66 91.7643 1868.08 91.4165C1866.39 91.0427 1865.69 92.3467 1864.76 93.4941C1865.32 93.6593 1865.89 93.8158 1866.44 93.9809C1865.96 92.4771 1865.49 90.9732 1865.01 89.478C1864.77 88.7304 1864.34 87.8872 1864.25 87.1135C1864.2 86.6528 1864.2 87.0179 1864.25 86.9136C1864.42 86.5572 1864.84 86.166 1865.09 85.8617C1866.11 84.5752 1867.42 83.0887 1865.57 81.7848C1863.76 80.5069 1862.56 81.6978 1861.44 83.0887C1862 83.2539 1862.56 83.4103 1863.12 83.5755C1860.65 75.8301 1858.19 68.0934 1855.72 60.348C1855.07 58.3138 1854.43 56.2797 1853.78 54.2455C1853.58 53.6022 1852.77 52.1331 1852.89 51.4551C1852.92 51.2638 1854.01 50.0294 1854.17 49.8034C1854.85 48.795 1855.51 47.778 1856.18 46.7609C1857.6 44.579 1858.99 42.3796 1860.32 40.1369C1862.38 36.6858 1864.34 33.1651 1866.01 29.5054C1867.1 27.0974 1868.17 24.5765 1868.62 21.9599C1868.85 20.6299 1869.01 19.0217 1868.12 17.8829C1865.82 14.9447 1861.29 17.6221 1858.99 19.0739C1852.32 23.2812 1846.53 29.0707 1841.07 34.7038C1840.14 35.66 1839.22 36.6249 1838.3 37.5985C1837.96 37.9549 1837.64 38.3635 1837.28 38.6938C1835 40.8236 1837.59 39.0242 1837.21 39.1719C1836.98 39.2589 1836.42 39.1024 1836.19 39.085C1834.57 38.9459 1832.96 38.8068 1831.34 38.6764C1822.1 37.8941 1812.86 37.1117 1803.62 36.3293C1803.99 36.6336 1804.37 36.9379 1804.75 37.2421C1805.33 36.5206 1806.18 35.7556 1805.94 34.7298C1805.71 33.7475 1804.66 33.0956 1803.72 32.9565C1801.82 32.6696 1800.72 34.9472 1799.71 36.2163C1799.91 36.1555 1800.1 36.1033 1800.29 36.0425C1797.77 35.8252 1795.26 35.6165 1792.73 35.3992C1793.11 35.7035 1793.48 36.0077 1793.86 36.312C1794.39 35.6513 1795.33 34.8255 1795.36 33.9127C1795.39 32.7218 1794.16 31.8786 1793.09 31.7134C1791.12 31.4178 1789.87 33.9736 1788.82 35.2862C1789.01 35.2253 1789.2 35.1732 1789.4 35.1123C1787.62 34.9646 1785.85 34.8081 1784.08 34.6603C1782.83 34.556 1781.58 34.4517 1780.33 34.3387C1779.76 34.2865 1778.97 34.0779 1778.4 34.1735C1777.22 34.3734 1776.3 36.2163 1775.59 37.1204C1774.38 38.633 1773.18 40.1455 1771.97 41.6581C1771.73 41.9537 1772.51 42.3796 1772.64 42.4405C1778.38 45.1266 1784.13 47.8127 1789.88 50.4988C1796.16 53.4371 1802.61 56.1406 1808.77 59.3222C1809.01 59.4439 1808.84 59.4265 1808.49 59.1396C1808.65 59.27 1808.82 59.4091 1808.96 59.5482C1809.73 60.3045 1810.6 60.9738 1811.41 61.678C1812.86 62.9471 1814.31 64.2163 1815.76 65.4855C1815.67 65.3029 1815.59 65.1291 1815.49 64.9465C1809.4 73.1613 1803.57 81.6457 1798.7 90.6516C1798.89 90.5907 1799.08 90.5385 1799.27 90.4777C1791.23 89.1129 1783.18 87.7481 1775.14 86.3833C1774.91 86.3485 1774.71 86.3746 1774.57 86.5572C1773.31 88.1393 1772.05 89.7127 1770.78 91.2948C1770.61 91.5122 1771.11 91.8946 1771.24 91.9642C1778.74 96.3454 1786.24 100.727 1793.74 105.099C1793.59 104.917 1793.43 104.734 1793.27 104.552C1793.08 108.124 1795.58 109.472 1798.83 108.55C1798.37 108.385 1797.92 108.22 1797.45 108.046C1803.39 114.383 1809.33 120.729 1815.27 127.066C1815.59 127.405 1816.47 127.883 1816.85 127.414C1818.11 125.832 1819.37 124.258 1820.63 122.676C1820.66 122.589 1820.66 122.502 1820.6 122.416C1818.68 117.756 1816.75 113.105 1814.83 108.446C1813.79 105.916 1812.75 103.395 1811.7 100.866C1811.28 99.84 1811.14 100.04 1812 99.4488C1814.15 97.971 1816.05 95.7195 1817.91 93.894C1823.03 88.8434 1827.86 83.5233 1832.54 78.0729C1832.09 77.9772 1831.64 77.8729 1831.18 77.7686C1833.79 79.6637 1836.4 81.5587 1839.01 83.4538C1839.53 83.8363 1841.15 83.8276 1840.18 83.1148C1837.57 81.2197 1834.96 79.3246 1832.36 77.4296C1832.12 77.2644 1831.29 76.7863 1831 77.1253C1824.34 84.8968 1817.36 92.451 1809.67 99.2054C1809.56 99.3097 1809.56 99.4314 1809.62 99.5618C1811.73 104.673 1813.84 109.785 1815.95 114.905C1816.87 117.13 1818.23 119.495 1818.82 121.842C1818.95 122.381 1818.91 121.929 1818.87 122.024C1818.65 122.52 1818.07 123.015 1817.74 123.433C1816.88 124.511 1816.02 125.588 1815.16 126.666C1815.69 126.779 1816.21 126.892 1816.74 127.014C1810.81 120.677 1804.87 114.331 1798.93 107.994C1798.62 107.664 1798.03 107.359 1797.56 107.49C1796.65 107.751 1795.52 107.916 1795.14 106.855C1794.94 106.281 1795.01 105.638 1795.04 105.047C1795.05 104.821 1794.72 104.595 1794.57 104.499C1787.07 100.118 1779.56 95.7369 1772.07 91.3644C1772.22 91.5904 1772.38 91.8077 1772.52 92.0337C1773.78 90.4516 1775.04 88.8782 1776.3 87.2961C1776.11 87.3569 1775.92 87.4091 1775.73 87.4699C1783.77 88.8347 1791.82 90.1995 1799.86 91.5643C1800.05 91.5991 1800.33 91.5904 1800.44 91.3904C1805.31 82.3846 1811.13 73.9003 1817.23 65.6854C1817.36 65.5116 1817.07 65.2334 1816.96 65.1465C1814.58 63.0688 1812.28 60.5827 1809.68 58.7832C1808.09 57.6879 1806.04 57.0359 1804.31 56.2188C1796.16 52.4113 1788.01 48.5951 1779.85 44.7876C1777.57 43.727 1775.3 42.6665 1773.03 41.5973C1773.25 41.8581 1773.48 42.1188 1773.7 42.3796C1775.64 39.9369 1777.59 37.5029 1779.54 35.0602C1779.35 35.121 1779.16 35.1732 1778.96 35.234C1782.34 35.5209 1785.71 35.8078 1789.08 36.0946C1790.38 36.2076 1790.53 36.0251 1791.37 34.9732C1791.84 34.3908 1792.55 32.9043 1793.2 33.3998C1793.86 33.8953 1792.6 34.9993 1792.17 35.5383C1791.85 35.9469 1793.07 36.4337 1793.3 36.451C1795.7 36.651 1798.24 37.1465 1800.64 37.0769C1801.58 37.0509 1801.77 36.5032 1802.36 35.773C1802.51 35.5731 1803.98 33.3042 1804.2 34.9211C1804.25 35.3036 1803.25 36.225 1803.06 36.4684C1802.74 36.877 1803.97 37.3638 1804.19 37.3812C1811.94 38.0332 1819.67 38.6938 1827.42 39.3458C1830.77 39.6327 1834.2 40.1716 1837.56 40.2064C1837.81 40.2064 1838.04 40.2846 1838.28 40.189C1839.09 39.8413 1840.02 38.3548 1840.64 37.7028C1841.55 36.7466 1842.47 35.7991 1843.39 34.8515C1846.49 31.6873 1849.68 28.61 1853.04 25.724C1855.43 23.6724 1857.9 21.673 1860.57 19.9866C1861.84 19.1782 1864.54 17.2483 1866.21 17.6743C1869.06 18.4132 1865.14 26.9236 1864.52 28.3058C1861.03 36.112 1856.18 43.0664 1851.66 50.2728C1851.04 51.2464 1851.44 51.7332 1851.78 52.8112C1852.3 54.4454 1852.82 56.071 1853.33 57.7053C1856.05 66.2505 1858.77 74.7869 1861.5 83.3234C1861.65 83.8189 1862.82 84.2535 1863.17 83.8102C1863.35 83.5929 1863.52 83.2539 1863.75 83.0974C1863.84 82.9757 1863.94 82.8627 1864.03 82.741C1864.8 82.9061 1864.98 83.2017 1864.56 83.645C1864.45 84.0101 1863.88 84.4969 1863.63 84.8012C1863 85.5923 1862.47 85.9226 1862.61 86.8614C1862.95 89.1477 1864.09 91.5295 1864.8 93.7375C1864.96 94.233 1866.12 94.6677 1866.48 94.2244C1866.67 93.9809 1867.35 92.8509 1867.6 92.8161C1869.13 92.5814 1867.9 93.9896 1867.7 94.2504C1867.17 94.9459 1865.83 96.0499 1865.81 96.9192C1865.79 97.5885 1866.35 98.5969 1866.55 99.2228C1867.05 100.814 1867.55 102.396 1868.07 103.987C1868.37 104.934 1869.08 106.247 1869.1 107.246C1869.12 107.638 1869.24 106.96 1868.95 107.429C1868.68 107.855 1868.31 108.237 1868 108.629C1866.43 110.593 1864.87 112.549 1863.3 114.514C1863.83 114.627 1864.36 114.74 1864.89 114.861C1857.71 105.629 1850.52 96.4063 1843.34 87.1744C1842.34 85.8791 1841.33 84.5839 1840.32 83.2799C1839.96 82.8453 1838.22 82.541 1838.85 83.3495Z" fill="#FA9556"/>
<path d="M1862.78 28.1406C1862.1 27.593 1861.4 27.0366 1860.71 26.489C1860.21 26.0891 1859.71 25.6892 1859.21 25.2894C1858.91 25.0546 1858.57 24.8373 1858.31 24.5765C1858.17 24.4374 1858.12 24.2636 1858.13 24.0637C1858.14 23.8724 1858.23 23.6551 1858.36 23.516C1858.35 23.5247 1858.48 23.4204 1858.51 23.3943C1858.57 23.3508 1858.73 23.3248 1858.77 23.2813C1858.75 23.3074 1858.37 23.0118 1858.6 23.2117C1858.73 23.3248 1858.87 23.4291 1859 23.5334C1859.97 24.3071 1860.95 25.0807 1861.92 25.8631C1862.27 26.1413 1862.66 26.3934 1862.97 26.6976C1863.13 26.8541 1863.19 27.0714 1863.16 27.2974C1863.12 27.5321 1862.98 27.7408 1862.83 27.8538C1862.75 27.9146 1862.62 27.9407 1862.54 27.9929C1862.45 28.0537 1862.5 27.9407 1862.78 28.1406C1862.46 27.9059 1861.96 27.6365 1861.55 27.7842C1861.17 27.9146 1861.37 28.3058 1861.61 28.4884C1862.23 28.9317 1863 29.2533 1863.76 29.0708C1864.26 28.9578 1864.7 28.5927 1864.83 28.0885C1865.04 27.2974 1864.56 26.6889 1863.98 26.2282C1862.9 25.3589 1861.81 24.4896 1860.72 23.6203C1860.38 23.3508 1860.04 23.064 1859.7 22.8032C1858.84 22.1512 1857.36 21.7687 1856.63 22.8119C1855.68 24.1593 1857.63 25.3067 1858.51 26.0109C1859.54 26.8367 1860.57 27.6625 1861.61 28.4884C1861.91 28.7318 1862.44 28.9926 1862.84 28.8448C1863.23 28.7057 1863.02 28.3232 1862.78 28.1406Z" fill="#FA9556"/>
<path d="M1832.62 78.0121C1838.53 70.3362 1844.44 62.6603 1850.35 54.9758C1851.2 53.8718 1852.05 52.7678 1852.91 51.6638C1853.25 51.2117 1851.63 50.3598 1851.2 50.9162C1845.29 58.592 1839.38 66.2679 1833.47 73.9525C1832.62 75.0565 1831.77 76.1605 1830.91 77.2645C1830.56 77.7165 1832.18 78.5684 1832.62 78.0121Z" fill="#FA9556"/>
<path d="M1836.76 39.2415C1830.59 46.7088 1824.42 54.1847 1818.25 61.6519C1817.36 62.7299 1816.47 63.7991 1815.58 64.877C1815.12 65.4421 1816.75 66.2679 1817.13 65.8158C1823.3 58.3486 1829.47 50.8727 1835.64 43.4054C1836.53 42.3275 1837.42 41.2583 1838.31 40.1804C1838.78 39.6153 1837.14 38.7895 1836.76 39.2415Z" fill="#FA9556"/>
<path d="M132.25 104.341C132.25 104.341 118.14 96.551 115.18 134.151C112.21 171.751 133.16 202.391 155.94 189.801C178.71 177.211 130.9 147.981 115.18 187.191C99.46 226.401 66.67 242.031 2 224.651" stroke="#FA9556" stroke-width="2.223" stroke-miterlimit="10" stroke-linecap="round" stroke-linejoin="round" stroke-dasharray="6.67 6.67"/>
<path d="M1794.25 118.231C1794.25 118.231 1780.14 110.441 1777.18 148.041C1774.21 185.641 1795.16 216.281 1817.94 203.691C1840.71 191.101 1792.9 161.871 1777.18 201.081C1761.46 240.291 1728.67 255.921 1664 238.541" stroke="#FA9556" stroke-width="2.223" stroke-miterlimit="10" stroke-linecap="round" stroke-linejoin="round" stroke-dasharray="6.67 6.67"/>
<path d="M563.11 139.963C563.11 139.963 601.37 176.403 630.51 173.663C659.66 170.933 658.5 148.903 641.77 146.713C625.04 144.523 620.12 171.843 653.55 185.053C686.98 198.263 720.62 170.023 721.11 132.673" stroke="#FFA200" stroke-width="2.223" stroke-miterlimit="10" stroke-linecap="round" stroke-linejoin="round" stroke-dasharray="6.67 6.67"/>
</svg>
